<?xml version="1.0" encoding="UTF-8" standalone="no"?><svg xmlns="http://www.w3.org/2000/svg" xmlns:xlink="http://www.w3.org/1999/xlink" contentScriptType="application/ecmascript" contentStyleType="text/css" height="752px" preserveAspectRatio="none" style="width:703px;height:752px;" version="1.1" viewBox="0 0 703 752" width="703px" zoomAndPan="magnify"><defs><filter height="300%" id="fgd0bmb" width="300%" x="-1" y="-1"><feGaussianBlur result="blurOut" stdDeviation="2.0"/><feColorMatrix in="blurOut" result="blurOut2" type="matrix" values="0 0 0 0 0 0 0 0 0 0 0 0 0 0 0 0 0 0 .4 0"/><feOffset dx="4.0" dy="4.0" in="blurOut2" result="blurOut3"/><feBlend in="SourceGraphic" in2="blurOut3" mode="normal"/></filter></defs><g><text fill="#000000" font-family="sans-serif" font-size="18" lengthAdjust="spacingAndGlyphs" textLength="248" x="236.5" y="17.4023">"Development Mode - Draft"</text><!--cluster Exposed Ports--><path d="M123,52.1992 C123,49.1992 125,47.1992 128,47.1992 C131,47.1992 133,49.1992 133,52.1992 C133,49.1992 135,47.1992 138,47.1992 C141,47.1992 143,49.1992 143,52.1992 C143,49.1992 145,47.1992 148,47.1992 C151,47.1992 153,49.1992 153,52.1992 C153,49.1992 155,47.1992 158,47.1992 C161,47.1992 163,49.1992 163,52.1992 C163,49.1992 165,47.1992 168,47.1992 C171,47.1992 173,49.1992 173,52.1992 C173,49.1992 175,47.1992 178,47.1992 C181,47.1992 183,49.1992 183,52.1992 C183,49.1992 185,47.1992 188,47.1992 C191,47.1992 193,49.1992 193,52.1992 C193,49.1992 195,47.1992 198,47.1992 C201,47.1992 203,49.1992 203,52.1992 C203,49.1992 205,47.1992 208,47.1992 C211,47.1992 213,49.1992 213,52.1992 C213,49.1992 215,47.1992 218,47.1992 C221,47.1992 223,49.1992 223,52.1992 C223,49.1992 225,47.1992 228,47.1992 C231,47.1992 233,49.1992 233,52.1992 C233,49.1992 235,47.1992 238,47.1992 C241,47.1992 243,49.1992 243,52.1992 C243,49.1992 245,47.1992 248,47.1992 C251,47.1992 253,49.1992 253,52.1992 C253,49.1992 255,47.1992 258,47.1992 C261,47.1992 263,49.1992 263,52.1992 C263,49.1992 265,47.1992 268,47.1992 C271,47.1992 273,49.1992 273,52.1992 C273,49.1992 275,47.1992 278,47.1992 C281,47.1992 283,49.1992 283,52.1992 C283,49.1992 285,47.1992 288,47.1992 C291,47.1992 293,49.1992 293,52.1992 C293,49.1992 295,47.1992 298,47.1992 C301,47.1992 303,49.1992 303,52.1992 C303,49.1992 305,47.1992 308,47.1992 C311,47.1992 313,49.1992 313,52.1992 C313,49.1992 315,47.1992 318,47.1992 C321,47.1992 323,49.1992 323,52.1992 C323,49.1992 325,47.1992 328,47.1992 C331,47.1992 333,49.1992 333,52.1992 C333,49.1992 335,47.1992 338,47.1992 C341,47.1992 343,49.1992 343,52.1992 C343,49.1992 345,47.1992 348,47.1992 C351,47.1992 353,49.1992 353,52.1992 C353,49.1992 355,47.1992 358,47.1992 C361,47.1992 363,49.1992 363,52.1992 C363,49.1992 365,47.1992 368,47.1992 C371,47.1992 373,49.1992 373,52.1992 C373,49.1992 375,47.1992 378,47.1992 C381,47.1992 383,49.1992 383,52.1992 C383,49.1992 385,47.1992 388,47.1992 C391,47.1992 393,49.1992 393,52.1992 C393,49.1992 395,47.1992 398,47.1992 C401,47.1992 403,49.1992 403,52.1992 C403,49.1992 405,47.1992 408,47.1992 C411,47.1992 413,49.1992 413,52.1992 C413,49.1992 415,47.1992 418,47.1992 C421,47.1992 423,49.1992 423,52.1992 C423,49.1992 425,47.1992 428,47.1992 C431,47.1992 433,49.1992 433,52.1992 C433,49.1992 435,47.1992 438,47.1992 C441,47.1992 443,49.1992 443,52.1992 C443,49.1992 445,47.1992 448,47.1992 C451,47.1992 453,49.1992 453,52.1992 C453,49.1992 455,47.1992 458,47.1992 C461,47.1992 463,49.1992 463,52.1992 C463,49.1992 465,47.1992 468,47.1992 C471,47.1992 473,49.1992 473,52.1992 C473,49.1992 475,47.1992 478,47.1992 C481,47.1992 483,49.1992 483,52.1992 C483,49.1992 485,47.1992 488,47.1992 C491,47.1992 493,49.1992 493,52.1992 C493,49.1992 495,47.1992 498,47.1992 C501,47.1992 503,49.1992 503,52.1992 C503,49.1992 505,47.1992 508,47.1992 C511,47.1992 513,49.1992 513,52.1992 C513,49.1992 515,47.1992 518,47.1992 C521,47.1992 523,49.1992 523,52.1992 C523,49.1992 525,47.1992 528,47.1992 C531,47.1992 533,49.1992 533,52.1992 C533,49.1992 535,47.1992 538,47.1992 C541,47.1992 543,49.1992 543,52.1992 C543,49.1992 545,47.1992 548,47.1992 C551,47.1992 553,49.1992 553,52.1992 C553,49.1992 555,47.1992 558,47.1992 C561,47.1992 563,49.1992 563,52.1992 C563,49.1992 565,47.1992 568,47.1992 C571,47.1992 573,49.1992 573,52.1992 C573,49.1992 575,47.1992 578,47.1992 C581,47.1992 583,49.1992 583,52.1992 C583,49.1992 585,47.1992 588,47.1992 C591,47.1992 593,49.1992 593,52.1992 C596,52.1992 598,54.1992 598,57.1992 C598,60.1992 596,62.1992 593,62.1992 C596,62.1992 598,64.1992 598,67.1992 C598,70.1992 596,72.1992 593,72.1992 C596,72.1992 598,74.1992 598,77.1992 C598,80.1992 596,82.1992 593,82.1992 C596,82.1992 598,84.1992 598,87.1992 C598,90.1992 596,92.1992 593,92.1992 C596,92.1992 598,94.1992 598,97.1992 C598,100.1992 596,102.1992 593,102.1992 C596,102.1992 598,104.1992 598,107.1992 C598,110.1992 596,112.1992 593,112.1992 C596,112.1992 598,114.1992 598,117.1992 C598,120.1992 596,122.1992 593,122.1992 C593,125.1992 590,127.1992 588,127.1992 C585,127.1992 583,125.1992 583,122.1992 C583,125.1992 580,127.1992 578,127.1992 C575,127.1992 573,125.1992 573,122.1992 C573,125.1992 570,127.1992 568,127.1992 C565,127.1992 563,125.1992 563,122.1992 C563,125.1992 560,127.1992 558,127.1992 C555,127.1992 553,125.1992 553,122.1992 C553,125.1992 550,127.1992 548,127.1992 C545,127.1992 543,125.1992 543,122.1992 C543,125.1992 540,127.1992 538,127.1992 C535,127.1992 533,125.1992 533,122.1992 C533,125.1992 530,127.1992 528,127.1992 C525,127.1992 523,125.1992 523,122.1992 C523,125.1992 520,127.1992 518,127.1992 C515,127.1992 513,125.1992 513,122.1992 C513,125.1992 510,127.1992 508,127.1992 C505,127.1992 503,125.1992 503,122.1992 C503,125.1992 500,127.1992 498,127.1992 C495,127.1992 493,125.1992 493,122.1992 C493,125.1992 490,127.1992 488,127.1992 C485,127.1992 483,125.1992 483,122.1992 C483,125.1992 480,127.1992 478,127.1992 C475,127.1992 473,125.1992 473,122.1992 C473,125.1992 470,127.1992 468,127.1992 C465,127.1992 463,125.1992 463,122.1992 C463,125.1992 460,127.1992 458,127.1992 C455,127.1992 453,125.1992 453,122.1992 C453,125.1992 450,127.1992 448,127.1992 C445,127.1992 443,125.1992 443,122.1992 C443,125.1992 440,127.1992 438,127.1992 C435,127.1992 433,125.1992 433,122.1992 C433,125.1992 430,127.1992 428,127.1992 C425,127.1992 423,125.1992 423,122.1992 C423,125.1992 420,127.1992 418,127.1992 C415,127.1992 413,125.1992 413,122.1992 C413,125.1992 410,127.1992 408,127.1992 C405,127.1992 403,125.1992 403,122.1992 C403,125.1992 400,127.1992 398,127.1992 C395,127.1992 393,125.1992 393,122.1992 C393,125.1992 390,127.1992 388,127.1992 C385,127.1992 383,125.1992 383,122.1992 C383,125.1992 380,127.1992 378,127.1992 C375,127.1992 373,125.1992 373,122.1992 C373,125.1992 370,127.1992 368,127.1992 C365,127.1992 363,125.1992 363,122.1992 C363,125.1992 360,127.1992 358,127.1992 C355,127.1992 353,125.1992 353,122.1992 C353,125.1992 350,127.1992 348,127.1992 C345,127.1992 343,125.1992 343,122.1992 C343,125.1992 340,127.1992 338,127.1992 C335,127.1992 333,125.1992 333,122.1992 C333,125.1992 330,127.1992 328,127.1992 C325,127.1992 323,125.1992 323,122.1992 C323,125.1992 320,127.1992 318,127.1992 C315,127.1992 313,125.1992 313,122.1992 C313,125.1992 310,127.1992 308,127.1992 C305,127.1992 303,125.1992 303,122.1992 C303,125.1992 300,127.1992 298,127.1992 C295,127.1992 293,125.1992 293,122.1992 C293,125.1992 290,127.1992 288,127.1992 C285,127.1992 283,125.1992 283,122.1992 C283,125.1992 280,127.1992 278,127.1992 C275,127.1992 273,125.1992 273,122.1992 C273,125.1992 270,127.1992 268,127.1992 C265,127.1992 263,125.1992 263,122.1992 C263,125.1992 260,127.1992 258,127.1992 C255,127.1992 253,125.1992 253,122.1992 C253,125.1992 250,127.1992 248,127.1992 C245,127.1992 243,125.1992 243,122.1992 C243,125.1992 240,127.1992 238,127.1992 C235,127.1992 233,125.1992 233,122.1992 C233,125.1992 230,127.1992 228,127.1992 C225,127.1992 223,125.1992 223,122.1992 C223,125.1992 220,127.1992 218,127.1992 C215,127.1992 213,125.1992 213,122.1992 C213,125.1992 210,127.1992 208,127.1992 C205,127.1992 203,125.1992 203,122.1992 C203,125.1992 200,127.1992 198,127.1992 C195,127.1992 193,125.1992 193,122.1992 C193,125.1992 190,127.1992 188,127.1992 C185,127.1992 183,125.1992 183,122.1992 C183,125.1992 180,127.1992 178,127.1992 C175,127.1992 173,125.1992 173,122.1992 C173,125.1992 170,127.1992 168,127.1992 C165,127.1992 163,125.1992 163,122.1992 C163,125.1992 160,127.1992 158,127.1992 C155,127.1992 153,125.1992 153,122.1992 C153,125.1992 150,127.1992 148,127.1992 C145,127.1992 143,125.1992 143,122.1992 C143,125.1992 140,127.1992 138,127.1992 C135,127.1992 133,125.1992 133,122.1992 C133,125.1992 130,127.1992 128,127.1992 C125,127.1992 123,125.1992 123,122.1992 C120,122.1992 118,120.1992 118,117.1992 C118,114.1992 120,112.1992 123,112.1992 C120,112.1992 118,110.1992 118,107.1992 C118,104.1992 120,102.1992 123,102.1992 C120,102.1992 118,100.1992 118,97.1992 C118,94.1992 120,92.1992 123,92.1992 C120,92.1992 118,90.1992 118,87.1992 C118,84.1992 120,82.1992 123,82.1992 C120,82.1992 118,80.1992 118,77.1992 C118,74.1992 120,72.1992 123,72.1992 C120,72.1992 118,70.1992 118,67.1992 C118,64.1992 120,62.1992 123,62.1992 C120,62.1992 118,60.1992 118,57.1992 C118,54.1992 120,52.1992 123,52.1992 " fill="#FFFFFF" filter="url(#fgd0bmb)" style="stroke: #000000; stroke-width: 2.0;"/><text fill="#000000" font-family="sans-serif" font-size="14" font-weight="bold" lengthAdjust="spacingAndGlyphs" textLength="102" x="308" y="71.7344">Exposed Ports</text><!--cluster nginx--><polygon fill="#FFFFFF" filter="url(#fgd0bmb)" points="368,316.6992,378,306.6992,541,306.6992,541,388.6992,531,398.6992,368,398.6992,368,316.6992" style="stroke: #000000; stroke-width: 2.0;"/><line style="stroke: #000000; stroke-width: 2.0;" x1="531" x2="540" y1="316.6992" y2="307.6992"/><line style="stroke: #000000; stroke-width: 2.0;" x1="368" x2="531" y1="316.6992" y2="316.6992"/><line style="stroke: #000000; stroke-width: 2.0;" x1="531" x2="531" y1="316.6992" y2="398.6992"/><text fill="#000000" font-family="sans-serif" font-size="14" font-weight="bold" lengthAdjust="spacingAndGlyphs" textLength="40" x="430.5" y="333.2344">nginx</text><!--cluster engine--><polygon fill="#FFFFFF" filter="url(#fgd0bmb)" points="213,548.1992,223,538.1992,473,538.1992,473,636.1992,463,646.1992,213,646.1992,213,548.1992" style="stroke: #000000; stroke-width: 2.0;"/><line style="stroke: #000000; stroke-width: 2.0;" x1="463" x2="472" y1="548.1992" y2="539.1992"/><line style="stroke: #000000; stroke-width: 2.0;" x1="213" x2="463" y1="548.1992" y2="548.1992"/><line style="stroke: #000000; stroke-width: 2.0;" x1="463" x2="463" y1="548.1992" y2="646.1992"/><text fill="#000000" font-family="sans-serif" font-size="14" font-weight="bold" lengthAdjust="spacingAndGlyphs" textLength="48" x="315" y="564.7344">engine</text><!--cluster db--><polygon fill="#FFFFFF" filter="url(#fgd0bmb)" points="173,304.1992,183,294.1992,336,294.1992,336,401.1992,326,411.1992,173,411.1992,173,304.1992" style="stroke: #000000; stroke-width: 2.0;"/><line style="stroke: #000000; stroke-width: 2.0;" x1="326" x2="335" y1="304.1992" y2="295.1992"/><line style="stroke: #000000; stroke-width: 2.0;" x1="173" x2="326" y1="304.1992" y2="304.1992"/><line style="stroke: #000000; stroke-width: 2.0;" x1="326" x2="326" y1="304.1992" y2="411.1992"/><text fill="#000000" font-family="sans-serif" font-size="14" font-weight="bold" lengthAdjust="spacingAndGlyphs" textLength="18" x="241.5" y="320.7344">db</text><!--entity SymfonyDevModePort--><ellipse cx="319" cy="89.1992" fill="#FEFECE" filter="url(#fgd0bmb)" rx="8" ry="8" style="stroke: #A80036; stroke-width: 2.0;"/><text fill="#000000" font-family="sans-serif" font-size="14" lengthAdjust="spacingAndGlyphs" textLength="45" x="296.5" y="111.7344">XX080</text><!--entity SymfonyProdModePort--><ellipse cx="479" cy="89.1992" fill="#FEFECE" filter="url(#fgd0bmb)" rx="8" ry="8" style="stroke: #A80036; stroke-width: 2.0;"/><text fill="#000000" font-family="sans-serif" font-size="14" lengthAdjust="spacingAndGlyphs" textLength="45" x="456.5" y="111.7344">XX081</text><!--entity SymfonyProdModeVarnishPort--><ellipse cx="399" cy="89.1992" fill="#FEFECE" filter="url(#fgd0bmb)" rx="8" ry="8" style="stroke: #A80036; stroke-width: 2.0;"/><text fill="#000000" font-family="sans-serif" font-size="14" lengthAdjust="spacingAndGlyphs" textLength="45" x="376.5" y="111.7344">XX082</text><!--entity MemcacheAdminPort--><ellipse cx="159" cy="89.1992" fill="#FEFECE" filter="url(#fgd0bmb)" rx="8" ry="8" style="stroke: #A80036; stroke-width: 2.0;"/><text fill="#000000" font-family="sans-serif" font-size="14" lengthAdjust="spacingAndGlyphs" textLength="45" x="136.5" y="111.7344">XX083</text><!--entity DatabaseEnginePort--><ellipse cx="239" cy="89.1992" fill="#FEFECE" filter="url(#fgd0bmb)" rx="8" ry="8" style="stroke: #A80036; stroke-width: 2.0;"/><text fill="#000000" font-family="sans-serif" font-size="14" lengthAdjust="spacingAndGlyphs" textLength="45" x="216.5" y="111.7344">XX306</text><!--entity MailcatcherPort--><ellipse cx="559" cy="89.1992" fill="#FEFECE" filter="url(#fgd0bmb)" rx="8" ry="8" style="stroke: #A80036; stroke-width: 2.0;"/><text fill="#000000" font-family="sans-serif" font-size="14" lengthAdjust="spacingAndGlyphs" textLength="45" x="536.5" y="111.7344">XX180</text><!--entity PROD--><rect fill="#FEFECE" filter="url(#fgd0bmb)" height="36.4883" style="stroke: #A80036; stroke-width: 1.5;" width="58" x="467" y="346.6992"/><rect fill="#FEFECE" height="5" style="stroke: #A80036; stroke-width: 1.5;" width="10" x="462" y="351.6992"/><rect fill="#FEFECE" height="5" style="stroke: #A80036; stroke-width: 1.5;" width="10" x="462" y="373.1875"/><text fill="#000000" font-family="sans-serif" font-size="14" lengthAdjust="spacingAndGlyphs" textLength="38" x="477" y="370.2344">PROD</text><!--entity DEV--><rect fill="#FEFECE" filter="url(#fgd0bmb)" height="36.4883" style="stroke: #A80036; stroke-width: 1.5;" width="47" x="384.5" y="346.6992"/><rect fill="#FEFECE" height="5" style="stroke: #A80036; stroke-width: 1.5;" width="10" x="379.5" y="351.6992"/><rect fill="#FEFECE" height="5" style="stroke: #A80036; stroke-width: 1.5;" width="10" x="379.5" y="373.1875"/><text fill="#000000" font-family="sans-serif" font-size="14" lengthAdjust="spacingAndGlyphs" textLength="27" x="394.5" y="370.2344">DEV</text><!--entity PhpFPM--><rect fill="#FEFECE" filter="url(#fgd0bmb)" height="36.4883" style="stroke: #A80036; stroke-width: 1.5;" width="82" x="367" y="586.1992"/><rect fill="#FEFECE" height="5" style="stroke: #A80036; stroke-width: 1.5;" width="10" x="362" y="591.1992"/><rect fill="#FEFECE" height="5" style="stroke: #A80036; stroke-width: 1.5;" width="10" x="362" y="612.6875"/><text fill="#000000" font-family="sans-serif" font-size="14" lengthAdjust="spacingAndGlyphs" textLength="62" x="377" y="609.7344">PHP-FPM</text><!--entity PhpCli--><rect fill="#FEFECE" filter="url(#fgd0bmb)" height="36.4883" style="stroke: #A80036; stroke-width: 1.5;" width="75" x="256.5" y="586.1992"/><rect fill="#FEFECE" height="5" style="stroke: #A80036; stroke-width: 1.5;" width="10" x="251.5" y="591.1992"/><rect fill="#FEFECE" height="5" style="stroke: #A80036; stroke-width: 1.5;" width="10" x="251.5" y="612.6875"/><text fill="#000000" font-family="sans-serif" font-size="14" lengthAdjust="spacingAndGlyphs" textLength="55" x="266.5" y="609.7344">PHP-CLI</text><!--entity StandardDB--><path d="M216.5,352.1992 C216.5,342.1992 264,342.1992 264,342.1992 C264,342.1992 311.5,342.1992 311.5,352.1992 L311.5,377.6875 C311.5,387.6875 264,387.6875 264,387.6875 C264,387.6875 216.5,387.6875 216.5,377.6875 L216.5,352.1992 " fill="#FEFECE" filter="url(#fgd0bmb)" style="stroke: #000000; stroke-width: 1.5;"/><path d="M216.5,352.1992 C216.5,362.1992 264,362.1992 264,362.1992 C264,362.1992 311.5,362.1992 311.5,352.1992 " fill="none" style="stroke: #000000; stroke-width: 1.5;"/><text fill="#000000" font-family="sans-serif" font-size="14" lengthAdjust="spacingAndGlyphs" textLength="75" x="226.5" y="379.7344">ezplatform</text><!--entity memcache--><polygon fill="#FFFFFF" filter="url(#fgd0bmb)" points="116.5,711.1992,126.5,701.1992,229.5,701.1992,229.5,737.6875,219.5,747.6875,116.5,747.6875,116.5,711.1992" style="stroke: #000000; stroke-width: 1.5;"/><line style="stroke: #000000; stroke-width: 1.5;" x1="219.5" x2="228.5" y1="711.1992" y2="702.1992"/><line style="stroke: #000000; stroke-width: 1.5;" x1="116.5" x2="219.5" y1="711.1992" y2="711.1992"/><line style="stroke: #000000; stroke-width: 1.5;" x1="219.5" x2="219.5" y1="711.1992" y2="747.6875"/><text fill="#000000" font-family="sans-serif" font-size="14" lengthAdjust="spacingAndGlyphs" textLength="73" x="131.5" y="734.7344">memcache</text><!--entity varnish--><polygon fill="#FFFFFF" filter="url(#fgd0bmb)" points="375,203.1992,385,193.1992,465,193.1992,465,229.6875,455,239.6875,375,239.6875,375,203.1992" style="stroke: #000000; stroke-width: 1.5;"/><line style="stroke: #000000; stroke-width: 1.5;" x1="455" x2="464" y1="203.1992" y2="194.1992"/><line style="stroke: #000000; stroke-width: 1.5;" x1="375" x2="455" y1="203.1992" y2="203.1992"/><line style="stroke: #000000; stroke-width: 1.5;" x1="455" x2="455" y1="203.1992" y2="239.6875"/><text fill="#000000" font-family="sans-serif" font-size="14" lengthAdjust="spacingAndGlyphs" textLength="50" x="390" y="226.7344">varnish</text><!--entity memcacheadmin--><polygon fill="#FFFFFF" filter="url(#fgd0bmb)" points="6,591.1992,16,581.1992,162,581.1992,162,617.6875,152,627.6875,6,627.6875,6,591.1992" style="stroke: #000000; stroke-width: 1.5;"/><line style="stroke: #000000; stroke-width: 1.5;" x1="152" x2="161" y1="591.1992" y2="582.1992"/><line style="stroke: #000000; stroke-width: 1.5;" x1="6" x2="152" y1="591.1992" y2="591.1992"/><line style="stroke: #000000; stroke-width: 1.5;" x1="152" x2="152" y1="591.1992" y2="627.6875"/><text fill="#000000" font-family="sans-serif" font-size="14" lengthAdjust="spacingAndGlyphs" textLength="116" x="21" y="614.7344">memcacheadmin</text><!--entity mailcatcher--><polygon fill="#FFFFFF" filter="url(#fgd0bmb)" points="410.5,711.1992,420.5,701.1992,529.5,701.1992,529.5,737.6875,519.5,747.6875,410.5,747.6875,410.5,711.1992" style="stroke: #000000; stroke-width: 1.5;"/><line style="stroke: #000000; stroke-width: 1.5;" x1="519.5" x2="528.5" y1="711.1992" y2="702.1992"/><line style="stroke: #000000; stroke-width: 1.5;" x1="410.5" x2="519.5" y1="711.1992" y2="711.1992"/><line style="stroke: #000000; stroke-width: 1.5;" x1="519.5" x2="519.5" y1="711.1992" y2="747.6875"/><text fill="#000000" font-family="sans-serif" font-size="14" lengthAdjust="spacingAndGlyphs" textLength="79" x="425.5" y="734.7344">mailcatcher</text><path d="M136.3085,110.5562 C106.8043,129.8323 59,168.4344 59,216.1992 C59,216.1992 59,216.1992 59,482.6992 C59,515.2702 67.7258,551.7634 74.8672,576.1761 " fill="none" style="stroke: #A80036; stroke-width: 1.0;"/><polygon fill="#A80036" points="76.3633,581.1964,77.6261,571.4289,74.9352,576.4047,69.9593,573.7138,76.3633,581.1964" style="stroke: #A80036; stroke-width: 1.0;"/><text fill="#000000" font-family="sans-serif" font-size="13" lengthAdjust="spacingAndGlyphs" textLength="85" x="60" y="369.7676">Web Interface</text><path d="M227.7009,114.3841 C216.1531,132.9588 198.8361,163.8542 191,193.1992 C186.3063,210.7765 183.2816,229.7145 181.3971,248.3668 C180.4549,257.693 179.7977,266.9477 179.3594,275.9251 C179.1403,280.4139 178.9758,284.8333 178.8579,289.1577 C178.8284,290.2388 178.8018,291.3139 178.778,292.3827 C178.7661,292.9172 178.7549,293.45 178.7444,293.9812 " fill="none" style="stroke: #A80036; stroke-width: 1.0;"/><polygon fill="#A80036" points="178.7444,293.9812,182.922,285.0622,178.8435,288.9821,174.9236,284.9036,178.7444,293.9812" style="stroke: #A80036; stroke-width: 1.0;"/><text fill="#000000" font-family="sans-serif" font-size="13" lengthAdjust="spacingAndGlyphs" textLength="76" x="192" y="221.2676">TCP forward</text><path d="M573.3835,114.5015 C590.2693,136.6239 616,176.7984 616,216.1992 C616,216.1992 616,216.1992 616,604.1992 C616,649.4427 573.6389,680.7626 534.5524,700.0318 " fill="none" style="stroke: #A80036; stroke-width: 1.0;"/><polygon fill="#A80036" points="529.805,702.322,539.649,702.014,534.3083,700.1494,536.1729,694.8087,529.805,702.322" style="stroke: #A80036; stroke-width: 1.0;"/><text fill="#000000" font-family="sans-serif" font-size="13" lengthAdjust="spacingAndGlyphs" textLength="85" x="617" y="448.7676">Web Interface</text><path d="M317.7585,114.3185 C316.3472,141.5224 315.8308,195.9648 330,239.1992 C342.9901,278.8358 370.944,318.7492 389.6136,342.5987 " fill="none" style="stroke: #A80036; stroke-width: 1.0;"/><polygon fill="#A80036" points="392.7558,346.5735,390.3122,337.0326,389.655,342.6511,384.0364,341.9939,392.7558,346.5735" style="stroke: #A80036; stroke-width: 1.0;"/><text fill="#000000" font-family="sans-serif" font-size="13" lengthAdjust="spacingAndGlyphs" textLength="26" x="331" y="221.2676">Web</text><path d="M480.0893,114.3395 C483.0366,160.7167 491.1712,288.7166 494.525,341.4894 " fill="none" style="stroke: #A80036; stroke-width: 1.0;"/><polygon fill="#A80036" points="494.8532,346.6541,498.2743,337.4185,494.5361,341.6642,490.2904,337.926,494.8532,346.6541" style="stroke: #A80036; stroke-width: 1.0;"/><text fill="#000000" font-family="sans-serif" font-size="13" lengthAdjust="spacingAndGlyphs" textLength="26" x="488" y="221.2676">Web</text><path d="M402.0088,114.249 C405.4039,133.4878 410.9793,165.0818 415.0248,188.0062 " fill="none" style="stroke: #A80036; stroke-width: 1.0;"/><polygon fill="#A80036" points="415.9148,193.0497,418.2898,183.4915,415.0458,188.1258,410.4115,184.8819,415.9148,193.0497" style="stroke: #A80036; stroke-width: 1.0;"/><text fill="#000000" font-family="sans-serif" font-size="13" lengthAdjust="spacingAndGlyphs" textLength="26" x="411" y="159.7676">Web</text><path d="M431.875,239.4023 C446.1613,267.317 469.9961,313.889 484.2338,341.7086 " fill="none" style="stroke: #A80036; stroke-width: 1.0;"/><polygon fill="#A80036" points="486.6047,346.3412,486.065,336.5072,484.3267,341.8903,478.9435,340.152,486.6047,346.3412" style="stroke: #A80036; stroke-width: 1.0;"/><path d="M408,382.7006 C408,425.4383 408,532.9987 408,580.7425 " fill="none" style="stroke: #A80036; stroke-width: 1.0;"/><polygon fill="#A80036" points="408,585.9889,412,576.9889,408,580.9889,404,576.9889,408,585.9889" style="stroke: #A80036; stroke-width: 1.0;"/><path d="M489.3857,382.7006 C473.6507,425.5249 434.0009,533.4353 416.5123,581.0323 " fill="none" style="stroke: #A80036; stroke-width: 1.0;"/><polygon fill="#A80036" points="414.6911,585.9889,421.5496,578.9206,416.4155,581.2957,414.0405,576.1616,414.6911,585.9889" style="stroke: #A80036; stroke-width: 1.0;"/><path d="M188.935,412.2104 C188.9954,412.5718 189.056,412.9345 189.1168,413.2986 C189.6033,416.2115 190.1045,419.2125 190.6183,422.2892 C191.6461,428.4427 192.7244,434.8991 193.8368,441.5595 C196.0615,454.8804 198.4226,469.0171 200.7876,483.1775 C203.1526,497.3379 205.5215,511.522 207.7621,524.9377 C208.8824,531.6455 209.9707,538.1613 211.0103,544.3859 C211.5301,547.4982 212.0377,550.5377 212.5311,553.4921 C212.6545,554.2307 212.777,554.964 212.8985,555.6917 C212.9289,555.8737 212.9592,556.0552 212.9895,556.2365 " fill="none" style="stroke: #A80036; stroke-width: 1.0;"/><polygon fill="#A80036" points="188.935,412.2104,186.4723,421.7464,189.7587,417.1421,194.363,420.4285,188.935,412.2104" style="stroke: #A80036; stroke-width: 1.0;"/><path d="M212.8755,624.5105 C212.7807,624.7475 212.6853,624.986 212.5893,625.2259 C212.3974,625.7058 212.2031,626.1915 212.0065,626.6829 C210.4342,630.6137 208.7184,634.9033 206.9116,639.4202 C199.6846,657.4879 191.0029,679.1921 184.233,696.1168 " fill="none" style="stroke: #A80036; stroke-width: 1.0;"/><polygon fill="#A80036" points="182.294,700.9642,189.3505,694.0936,184.151,696.3219,181.9228,691.1224,182.294,700.9642" style="stroke: #A80036; stroke-width: 1.0;"/><path d="M229.2449,646.4423 C231.8917,652.3152 235.3864,657.825 240,662.1992 C263.754,684.7205 346.0755,703.0961 405.4503,713.8416 " fill="none" style="stroke: #A80036; stroke-width: 1.0;"/><polygon fill="#A80036" points="410.4016,714.7297,402.2491,709.2037,405.4801,713.847,400.8368,717.078,410.4016,714.7297" style="stroke: #A80036; stroke-width: 1.0;"/><path d="M101.1601,627.3364 C115.935,647.2576 137.2749,676.0305 152.8567,697.0396 " fill="none" style="stroke: #A80036; stroke-width: 1.0;"/><polygon fill="#A80036" points="155.8926,701.133,153.744,691.5214,152.914,697.117,147.3184,696.2871,155.8926,701.133" style="stroke: #A80036; stroke-width: 1.0;"/></g></svg>